<mxfile host="app.diagrams.net" modified="2021-09-30T16:59:50.535Z" agent="5.0 (Windows NT 10.0; Win64; x64) AppleWebKit/537.36 (KHTML, like Gecko) Chrome/94.0.4606.61 Safari/537.36" etag="27K0bnZPO4dfHkWmxD1Y" version="15.3.8" type="github">
  <diagram id="k1NFdJPwj5MZeIPAVfTh" name="Page-1">
    <mxGraphModel dx="813" dy="1623" grid="1" gridSize="10" guides="1" tooltips="1" connect="1" arrows="1" fold="1" page="1" pageScale="1" pageWidth="827" pageHeight="1169" math="0" shadow="0">
      <root>
        <mxCell id="0" />
        <mxCell id="1" parent="0" />
        <mxCell id="L2ctw-SMn443XDZrECx9-1" value="Receber necessidade" style="rounded=1;whiteSpace=wrap;html=1;" vertex="1" parent="1">
          <mxGeometry x="340" y="-1060" width="120" height="30" as="geometry" />
        </mxCell>
        <mxCell id="L2ctw-SMn443XDZrECx9-2" value="Realizar programação" style="rounded=0;whiteSpace=wrap;html=1;" vertex="1" parent="1">
          <mxGeometry x="340" y="-1009" width="120" height="30" as="geometry" />
        </mxCell>
        <mxCell id="L2ctw-SMn443XDZrECx9-3" value="Realizar operação descrita na ordem" style="rounded=0;whiteSpace=wrap;html=1;" vertex="1" parent="1">
          <mxGeometry x="340" y="-950" width="120" height="30" as="geometry" />
        </mxCell>
        <mxCell id="L2ctw-SMn443XDZrECx9-4" value="" style="endArrow=classic;html=1;exitX=0.5;exitY=1;exitDx=0;exitDy=0;entryX=0.5;entryY=0;entryDx=0;entryDy=0;entryPerimeter=0;" edge="1" parent="1" source="L2ctw-SMn443XDZrECx9-1" target="L2ctw-SMn443XDZrECx9-2">
          <mxGeometry width="50" height="50" relative="1" as="geometry">
            <mxPoint x="403.75" y="-610" as="sourcePoint" />
            <mxPoint x="403.75" y="-1010" as="targetPoint" />
          </mxGeometry>
        </mxCell>
        <mxCell id="L2ctw-SMn443XDZrECx9-6" value="" style="endArrow=classic;html=1;entryX=0.5;entryY=0;entryDx=0;entryDy=0;exitX=0.5;exitY=1;exitDx=0;exitDy=0;" edge="1" parent="1" source="L2ctw-SMn443XDZrECx9-2" target="L2ctw-SMn443XDZrECx9-3">
          <mxGeometry width="50" height="50" relative="1" as="geometry">
            <mxPoint x="400" y="-980.0000000000001" as="sourcePoint" />
            <mxPoint x="403.75" y="-950" as="targetPoint" />
          </mxGeometry>
        </mxCell>
        <mxCell id="L2ctw-SMn443XDZrECx9-7" value="Máquina parou?" style="rhombus;whiteSpace=wrap;html=1;" vertex="1" parent="1">
          <mxGeometry x="361" y="-900" width="80" height="60" as="geometry" />
        </mxCell>
        <mxCell id="L2ctw-SMn443XDZrECx9-8" value="" style="endArrow=classic;html=1;exitX=1;exitY=0.5;exitDx=0;exitDy=0;entryX=0.5;entryY=0;entryDx=0;entryDy=0;" edge="1" parent="1" source="L2ctw-SMn443XDZrECx9-7" target="L2ctw-SMn443XDZrECx9-12">
          <mxGeometry width="50" height="50" relative="1" as="geometry">
            <mxPoint x="61" y="-880" as="sourcePoint" />
            <mxPoint x="471" y="-780" as="targetPoint" />
            <Array as="points">
              <mxPoint x="491" y="-870" />
            </Array>
          </mxGeometry>
        </mxCell>
        <mxCell id="L2ctw-SMn443XDZrECx9-9" value="" style="endArrow=classic;html=1;exitX=0;exitY=0.5;exitDx=0;exitDy=0;entryX=0.5;entryY=0;entryDx=0;entryDy=0;" edge="1" parent="1" source="L2ctw-SMn443XDZrECx9-7" target="L2ctw-SMn443XDZrECx9-18">
          <mxGeometry width="50" height="50" relative="1" as="geometry">
            <mxPoint x="61" y="-880" as="sourcePoint" />
            <mxPoint x="320" y="-843" as="targetPoint" />
            <Array as="points">
              <mxPoint x="291" y="-870" />
            </Array>
          </mxGeometry>
        </mxCell>
        <mxCell id="L2ctw-SMn443XDZrECx9-10" value="Sim" style="text;html=1;strokeColor=none;fillColor=none;align=center;verticalAlign=middle;whiteSpace=wrap;rounded=0;" vertex="1" parent="1">
          <mxGeometry x="431" y="-890" width="40" height="20" as="geometry" />
        </mxCell>
        <mxCell id="L2ctw-SMn443XDZrECx9-11" value="Não" style="text;html=1;strokeColor=none;fillColor=none;align=center;verticalAlign=middle;whiteSpace=wrap;rounded=0;" vertex="1" parent="1">
          <mxGeometry x="331" y="-890" width="40" height="20" as="geometry" />
        </mxCell>
        <mxCell id="L2ctw-SMn443XDZrECx9-12" value="Adicionar novo lote de vergalhão?" style="rhombus;whiteSpace=wrap;html=1;" vertex="1" parent="1">
          <mxGeometry x="431" y="-840" width="120" height="90" as="geometry" />
        </mxCell>
        <mxCell id="L2ctw-SMn443XDZrECx9-13" value="" style="endArrow=classic;html=1;exitX=0;exitY=0.5;exitDx=0;exitDy=0;entryX=0.5;entryY=0;entryDx=0;entryDy=0;" edge="1" parent="1" source="L2ctw-SMn443XDZrECx9-12" target="L2ctw-SMn443XDZrECx9-19">
          <mxGeometry width="50" height="50" relative="1" as="geometry">
            <mxPoint x="131" y="-860" as="sourcePoint" />
            <mxPoint x="391" y="-720" as="targetPoint" />
            <Array as="points">
              <mxPoint x="401" y="-795" />
            </Array>
          </mxGeometry>
        </mxCell>
        <mxCell id="L2ctw-SMn443XDZrECx9-14" value="Não" style="text;html=1;strokeColor=none;fillColor=none;align=center;verticalAlign=middle;whiteSpace=wrap;rounded=0;" vertex="1" parent="1">
          <mxGeometry x="401" y="-820" width="40" height="20" as="geometry" />
        </mxCell>
        <mxCell id="L2ctw-SMn443XDZrECx9-15" value="" style="endArrow=classic;html=1;exitX=1;exitY=0.5;exitDx=0;exitDy=0;entryX=0.5;entryY=0;entryDx=0;entryDy=0;" edge="1" parent="1" source="L2ctw-SMn443XDZrECx9-12" target="L2ctw-SMn443XDZrECx9-17">
          <mxGeometry width="50" height="50" relative="1" as="geometry">
            <mxPoint x="131" y="-860" as="sourcePoint" />
            <mxPoint x="551" y="-720" as="targetPoint" />
            <Array as="points">
              <mxPoint x="551" y="-795" />
              <mxPoint x="581" y="-795" />
            </Array>
          </mxGeometry>
        </mxCell>
        <mxCell id="L2ctw-SMn443XDZrECx9-16" value="Sim" style="text;html=1;strokeColor=none;fillColor=none;align=center;verticalAlign=middle;whiteSpace=wrap;rounded=0;" vertex="1" parent="1">
          <mxGeometry x="541" y="-820" width="40" height="20" as="geometry" />
        </mxCell>
        <mxCell id="L2ctw-SMn443XDZrECx9-17" value="Apontar novo lote de vergalhão no GCF" style="rounded=0;whiteSpace=wrap;html=1;" vertex="1" parent="1">
          <mxGeometry x="521" y="-750" width="120" height="30" as="geometry" />
        </mxCell>
        <mxCell id="L2ctw-SMn443XDZrECx9-18" value="Ordem salva com um lote de vergalhão" style="rounded=0;whiteSpace=wrap;html=1;" vertex="1" parent="1">
          <mxGeometry x="231" y="-820" width="120" height="40" as="geometry" />
        </mxCell>
        <mxCell id="L2ctw-SMn443XDZrECx9-19" value="Ordem salva com um lote de vergalhão" style="rounded=0;whiteSpace=wrap;html=1;" vertex="1" parent="1">
          <mxGeometry x="341" y="-750" width="120" height="40" as="geometry" />
        </mxCell>
        <mxCell id="L2ctw-SMn443XDZrECx9-20" value="" style="endArrow=classic;html=1;exitX=0.5;exitY=1;exitDx=0;exitDy=0;entryX=0.5;entryY=0;entryDx=0;entryDy=0;" edge="1" parent="1" source="L2ctw-SMn443XDZrECx9-17" target="L2ctw-SMn443XDZrECx9-21">
          <mxGeometry width="50" height="50" relative="1" as="geometry">
            <mxPoint x="111" y="-800" as="sourcePoint" />
            <mxPoint x="551" y="-690" as="targetPoint" />
          </mxGeometry>
        </mxCell>
        <mxCell id="L2ctw-SMn443XDZrECx9-21" value="Ordem salva com mais de um lote de vergalhão" style="rounded=0;whiteSpace=wrap;html=1;" vertex="1" parent="1">
          <mxGeometry x="521" y="-700" width="120" height="50" as="geometry" />
        </mxCell>
        <mxCell id="L2ctw-SMn443XDZrECx9-22" value="" style="endArrow=classic;html=1;exitX=0.5;exitY=1;exitDx=0;exitDy=0;" edge="1" parent="1" source="L2ctw-SMn443XDZrECx9-3" target="L2ctw-SMn443XDZrECx9-7">
          <mxGeometry width="50" height="50" relative="1" as="geometry">
            <mxPoint x="550" y="-730" as="sourcePoint" />
            <mxPoint x="600" y="-780" as="targetPoint" />
          </mxGeometry>
        </mxCell>
        <mxCell id="L2ctw-SMn443XDZrECx9-23" value="" style="endArrow=classic;html=1;exitX=0.5;exitY=1;exitDx=0;exitDy=0;" edge="1" parent="1" source="L2ctw-SMn443XDZrECx9-18">
          <mxGeometry width="50" height="50" relative="1" as="geometry">
            <mxPoint x="551" y="-690" as="sourcePoint" />
            <mxPoint x="340" y="-620" as="targetPoint" />
            <Array as="points">
              <mxPoint x="291" y="-690" />
            </Array>
          </mxGeometry>
        </mxCell>
        <mxCell id="L2ctw-SMn443XDZrECx9-24" value="" style="endArrow=classic;html=1;exitX=0.5;exitY=1;exitDx=0;exitDy=0;entryX=0.5;entryY=0;entryDx=0;entryDy=0;" edge="1" parent="1" source="L2ctw-SMn443XDZrECx9-19" target="L2ctw-SMn443XDZrECx9-27">
          <mxGeometry width="50" height="50" relative="1" as="geometry">
            <mxPoint x="551" y="-705" as="sourcePoint" />
            <mxPoint x="401" y="-545" as="targetPoint" />
            <Array as="points" />
          </mxGeometry>
        </mxCell>
        <mxCell id="L2ctw-SMn443XDZrECx9-25" value="" style="endArrow=classic;html=1;exitX=0.5;exitY=1;exitDx=0;exitDy=0;entryX=1;entryY=0.5;entryDx=0;entryDy=0;" edge="1" parent="1" source="L2ctw-SMn443XDZrECx9-21" target="L2ctw-SMn443XDZrECx9-27">
          <mxGeometry width="50" height="50" relative="1" as="geometry">
            <mxPoint x="551" y="-715" as="sourcePoint" />
            <mxPoint x="411" y="-545" as="targetPoint" />
            <Array as="points">
              <mxPoint x="581" y="-635" />
            </Array>
          </mxGeometry>
        </mxCell>
        <mxCell id="L2ctw-SMn443XDZrECx9-27" value="Dar continuidade na ordem" style="rounded=0;whiteSpace=wrap;html=1;" vertex="1" parent="1">
          <mxGeometry x="341" y="-624" width="120" height="40" as="geometry" />
        </mxCell>
      </root>
    </mxGraphModel>
  </diagram>
</mxfile>
